<?xml version="1.0" standalone="no"?>
<!DOCTYPE svg PUBLIC "-//W3C//DTD SVG 20010904//EN"
 "http://www.w3.org/TR/2001/REC-SVG-20010904/DTD/svg10.dtd">
<svg version="1.0" xmlns="http://www.w3.org/2000/svg"
 width="660.000000pt" height="660.000000pt" viewBox="0 0 660.000000 660.000000"
 preserveAspectRatio="xMidYMid meet">
<metadata>
Created by potrace 1.11, written by Peter Selinger 2001-2013
</metadata>
<g transform="translate(0.000000,660.000000) scale(0.100000,-0.100000)"
fill="#000000" stroke="none">
<path d="M3277 4663 c2 -1061 3 -1966 2 -2013 0 -47 -1 -89 0 -95 0 -31 2
-148 2 -200 0 -310 7 -2331 8 -2335 0 -3 586 -6 1302 -6 l1301 0 -7 61 c-4 33
-9 78 -11 100 -2 22 -6 59 -9 83 -3 23 -7 62 -10 87 -3 25 -7 64 -10 88 -3 23
-7 65 -10 92 -3 28 -7 68 -10 90 -2 22 -7 60 -9 85 -3 25 -8 65 -10 90 -3 25
-8 68 -11 95 -7 64 -14 130 -20 175 -2 19 -7 60 -10 90 -3 30 -7 73 -10 95 -2
22 -7 65 -11 95 -3 30 -7 69 -9 85 -2 17 -6 55 -10 85 -3 30 -8 71 -10 90 -3
19 -7 58 -10 85 -3 28 -8 70 -11 95 -3 25 -7 63 -9 85 -3 38 -13 131 -20 185
-1 14 -6 57 -10 95 -3 39 -8 83 -11 99 -3 15 -7 51 -9 79 -3 28 -7 67 -10 87
-2 19 -7 58 -10 85 -3 28 -7 64 -9 80 -3 17 -7 63 -11 104 -4 41 -8 82 -10 91
-2 9 -6 50 -10 91 -3 41 -8 81 -10 89 -2 8 -7 44 -10 80 -4 36 -8 79 -10 95
-5 42 -15 133 -20 180 -2 22 -6 54 -9 70 -2 17 -7 62 -11 100 -3 39 -8 88 -11
109 -2 21 -7 62 -10 90 -3 28 -7 62 -9 76 -1 14 -6 54 -9 90 -4 36 -9 76 -11
90 -2 14 -7 54 -10 90 -4 36 -8 79 -11 95 -2 17 -6 57 -10 90 -3 33 -8 71 -9
85 -2 14 -6 59 -10 100 -4 41 -9 82 -11 90 -1 8 -3 27 -3 42 -1 15 -7 33 -14
40 -8 7 -117 113 -243 235 -126 122 -284 275 -351 340 -67 65 -224 217 -349
338 -125 121 -264 256 -309 300 -45 44 -179 175 -299 290 -119 116 -290 281
-379 368 -89 86 -164 157 -167 157 -4 0 -5 -867 -3 -1927z"/>
<path d="M3032 6280 c0 -14 2 -19 5 -12 2 6 2 18 0 25 -3 6 -5 1 -5 -13z"/>
<path d="M3030 6219 c0 -5 5 -7 10 -4 6 3 10 8 10 11 0 2 -4 4 -10 4 -5 0 -10
-5 -10 -11z"/>
<path d="M3029 6139 c0 -35 -2 -102 -4 -149 -4 -124 -16 -487 -20 -615 -10
-325 -16 -493 -20 -605 -4 -123 -12 -357 -21 -640 -2 -80 -6 -203 -9 -275 -2
-71 -7 -215 -10 -320 -3 -104 -7 -246 -10 -315 -4 -125 -14 -420 -20 -625 -4
-135 -13 -425 -21 -640 -5 -164 -9 -282 -19 -605 -3 -102 -8 -246 -10 -320 -3
-74 -7 -209 -10 -300 -3 -91 -8 -232 -11 -315 -2 -82 -6 -207 -8 -277 l-3
-128 93 1 93 1 1 296 c2 717 20 5399 21 5502 0 8 0 44 0 80 0 36 0 118 0 183
1 65 -2 121 -5 124 -3 4 -6 -23 -7 -58z"/>
<path d="M2713 5989 c-2 -23 3 -25 10 -4 4 8 3 16 -1 19 -4 3 -9 -4 -9 -15z"/>
<path d="M2710 5910 c0 -11 4 -20 9 -20 5 0 7 9 4 20 -3 11 -7 20 -9 20 -2 0
-4 -9 -4 -20z"/>
<path d="M2705 5870 c-3 -5 -1 -10 4 -10 6 0 11 5 11 10 0 6 -2 10 -4 10 -3 0
-8 -4 -11 -10z"/>
<path d="M2705 5840 c-3 -5 -1 -10 4 -10 6 0 11 5 11 10 0 6 -2 10 -4 10 -3 0
-8 -4 -11 -10z"/>
<path d="M2709 5818 c-1 -2 -3 -39 -5 -83 -1 -44 -5 -127 -8 -185 -10 -176
-16 -319 -21 -445 -3 -66 -7 -165 -10 -220 -2 -55 -7 -156 -10 -225 -5 -116
-8 -199 -20 -450 -3 -52 -7 -142 -10 -200 -4 -109 -13 -295 -20 -460 -3 -52
-7 -149 -10 -215 -3 -66 -8 -165 -10 -220 -3 -55 -7 -163 -11 -240 -3 -77 -7
-169 -9 -205 -2 -36 -7 -137 -10 -225 -3 -88 -8 -191 -10 -230 -2 -38 -7 -140
-10 -225 -3 -85 -8 -191 -10 -235 -5 -78 -10 -187 -20 -430 -3 -66 -7 -158
-10 -205 -3 -47 -7 -150 -10 -230 -6 -145 -10 -238 -19 -425 -3 -55 -8 -180
-12 -277 l-6 -178 84 1 c46 0 89 4 94 7 5 4 10 101 11 217 1 116 5 377 8 580
3 204 7 516 10 695 2 179 7 487 10 685 6 355 10 630 20 1325 7 461 13 873 20
1350 14 911 14 968 4 948z"/>
<path d="M2426 5733 c-6 -14 -5 -15 5 -6 7 7 10 15 7 18 -3 3 -9 -2 -12 -12z"/>
<path d="M2419 5663 c0 -27 -2 -65 -3 -85 -2 -21 0 -38 4 -38 4 0 8 38 9 85 1
47 -1 85 -4 85 -3 0 -5 -21 -6 -47z"/>
<path d="M2409 5498 c-2 -60 -18 -314 -24 -388 -3 -25 -7 -92 -10 -150 -4 -58
-8 -130 -10 -160 -3 -30 -7 -93 -10 -140 -3 -47 -8 -112 -10 -145 -2 -33 -7
-98 -10 -145 -7 -115 -14 -230 -20 -320 -9 -126 -13 -191 -20 -295 -3 -55 -8
-129 -11 -165 -5 -67 -9 -127 -19 -290 -3 -52 -7 -120 -10 -150 -2 -30 -7 -96
-10 -146 -3 -50 -7 -117 -10 -150 -5 -71 -14 -207 -21 -324 -6 -100 -11 -180
-18 -270 -3 -36 -7 -108 -11 -160 -3 -52 -8 -120 -10 -150 -3 -30 -7 -98 -10
-150 -6 -108 -12 -204 -20 -305 -4 -63 -8 -119 -20 -310 -2 -33 -6 -94 -9
-135 -15 -208 -21 -296 -41 -625 -2 -49 -7 -112 -9 -140 -3 -27 -8 -101 -12
-162 l-6 -112 91 0 c50 0 92 3 92 7 2 11 7 129 13 317 4 94 8 229 11 300 3 72
7 198 10 280 3 83 8 206 10 275 5 163 14 434 20 585 2 66 7 197 10 290 3 94 8
229 11 300 2 72 6 198 9 280 3 83 7 206 10 275 3 69 7 197 10 285 3 88 8 230
11 315 3 85 7 209 9 275 10 289 24 694 31 875 3 80 7 197 9 260 2 63 6 205 10
315 3 110 8 219 10 243 2 23 0 42 -6 42 -5 0 -9 -15 -10 -32z"/>
<path d="M2111 5404 c0 -11 3 -14 6 -6 3 7 2 16 -1 19 -3 4 -6 -2 -5 -13z"/>
<path d="M2109 5373 c-1 -5 -2 -24 -4 -43 -1 -19 -6 -75 -10 -125 -3 -49 -8
-115 -10 -145 -4 -64 -18 -248 -30 -405 -3 -38 -8 -101 -10 -140 -2 -38 -6
-95 -9 -125 -3 -30 -8 -89 -11 -130 -8 -114 -15 -219 -20 -280 -3 -30 -7 -93
-10 -140 -3 -47 -8 -105 -10 -130 -3 -25 -7 -83 -10 -130 -3 -47 -8 -105 -11
-130 -2 -25 -6 -83 -9 -130 -4 -82 -8 -136 -20 -280 -3 -36 -7 -94 -10 -130
-2 -36 -7 -96 -10 -135 -3 -38 -7 -104 -10 -145 -5 -71 -7 -102 -19 -260 -3
-36 -8 -99 -11 -140 -3 -41 -8 -104 -10 -140 -3 -36 -8 -90 -10 -120 -2 -30
-7 -98 -11 -150 -3 -52 -7 -113 -9 -135 -2 -22 -6 -80 -9 -130 -4 -49 -8 -112
-11 -140 -5 -52 -13 -161 -20 -274 -3 -36 -7 -93 -10 -126 -10 -124 -16 -197
-20 -267 -6 -94 -13 -186 -20 -273 -3 -38 -8 -104 -10 -145 -3 -41 -8 -104
-11 -140 -3 -36 -7 -91 -9 -122 l-4 -57 90 1 c49 0 91 3 94 7 2 4 7 84 10 177
3 94 8 206 10 250 3 43 7 149 10 234 3 85 7 198 9 250 2 52 7 167 11 255 3 88
8 198 10 245 3 47 7 151 10 230 3 80 7 188 10 240 4 85 11 273 20 510 3 92 13
319 20 495 8 171 21 478 30 720 3 72 7 182 10 245 2 63 7 180 10 260 3 80 8
190 10 245 3 55 7 159 10 230 17 420 25 619 29 708 2 37 2 67 0 67 -2 0 -4 -3
-5 -7z"/>
<path d="M1821 5134 c0 -11 3 -14 6 -6 3 7 2 16 -1 19 -3 4 -6 -2 -5 -13z"/>
<path d="M1822 5085 c0 -16 2 -22 5 -12 2 9 2 23 0 30 -3 6 -5 -1 -5 -18z"/>
<path d="M1812 5033 c1 -21 -11 -173 -16 -200 -2 -10 -7 -63 -11 -118 -4 -55
-9 -113 -11 -130 -6 -74 -15 -174 -19 -215 -5 -63 -16 -188 -20 -230 -2 -19
-6 -66 -9 -105 -3 -38 -8 -92 -11 -120 -8 -76 -14 -143 -20 -215 -3 -36 -8
-90 -11 -120 -2 -30 -7 -77 -9 -105 -4 -50 -12 -130 -20 -215 -2 -25 -7 -79
-11 -120 -3 -41 -8 -88 -9 -105 -2 -16 -6 -66 -10 -110 -4 -44 -8 -96 -10
-115 -3 -19 -7 -69 -9 -110 -3 -41 -6 -75 -6 -75 -2 0 -8 -61 -14 -140 -6 -71
-12 -134 -22 -235 -3 -30 -7 -77 -9 -105 -4 -49 -10 -120 -21 -233 -11 -122
-14 -149 -19 -207 -10 -127 -15 -181 -19 -220 -8 -72 -17 -179 -21 -235 -2
-30 -7 -80 -10 -110 -4 -30 -8 -75 -10 -100 -12 -152 -15 -189 -19 -225 -2
-22 -7 -71 -10 -110 -4 -38 -9 -95 -12 -126 -3 -30 -7 -75 -9 -100 -12 -150
-17 -197 -20 -219 -4 -21 -7 -58 -18 -220 -2 -25 -2 -25 91 -27 l92 -1 1 26
c1 15 2 45 4 67 3 43 13 231 20 360 2 44 7 127 10 185 3 58 8 143 10 190 3 47
7 128 10 180 3 52 8 133 10 180 2 47 6 130 10 185 3 55 7 136 10 180 2 44 7
123 9 175 3 52 8 140 11 195 3 55 8 138 10 185 12 206 15 261 20 360 3 58 7
139 10 180 2 41 7 125 10 185 4 61 8 139 10 175 2 36 7 119 10 185 4 66 8 145
10 175 2 30 6 116 10 190 4 74 8 164 11 200 2 36 6 110 9 165 11 207 15 282
20 365 4 79 10 181 20 370 2 41 7 125 10 185 4 61 8 129 9 153 2 23 -1 42 -5
42 -4 0 -7 -8 -7 -17z"/>
<path d="M1489 4763 c0 -16 -2 -37 -4 -48 -2 -11 -7 -51 -10 -90 -4 -38 -9
-88 -11 -110 -2 -22 -6 -62 -9 -90 -2 -27 -7 -72 -9 -100 -3 -27 -8 -72 -10
-100 -3 -27 -8 -75 -11 -105 -4 -30 -8 -77 -11 -105 -2 -27 -7 -70 -10 -95 -3
-25 -7 -65 -8 -90 -5 -56 -15 -163 -21 -210 -7 -58 -15 -135 -20 -197 -3 -32
-7 -78 -11 -103 -3 -25 -7 -65 -9 -90 -2 -25 -7 -67 -10 -95 -10 -91 -15 -142
-20 -201 -2 -33 -7 -75 -9 -94 -3 -19 -8 -62 -10 -95 -3 -33 -8 -78 -10 -100
-3 -22 -8 -69 -11 -105 -2 -36 -7 -81 -10 -101 -3 -20 -7 -65 -10 -100 -3 -35
-7 -77 -9 -94 -2 -16 -6 -61 -10 -100 -4 -38 -9 -86 -11 -105 -3 -19 -7 -66
-10 -105 -2 -38 -5 -70 -5 -70 -2 0 -10 -62 -15 -125 -3 -36 -7 -81 -9 -100
-3 -19 -7 -66 -11 -105 -3 -38 -8 -83 -10 -100 -2 -16 -6 -55 -9 -85 -3 -30
-8 -77 -11 -105 -3 -27 -7 -79 -11 -115 -3 -36 -7 -76 -9 -90 -1 -14 -5 -52
-9 -85 -6 -57 -8 -83 -20 -215 -3 -30 -7 -71 -10 -90 -3 -19 -7 -61 -10 -92
-9 -93 -23 -231 -31 -308 -2 -25 -7 -76 -11 -115 -3 -38 -7 -82 -9 -97 l-3
-27 89 0 c49 0 91 4 94 8 2 5 7 48 10 97 3 49 7 121 10 159 3 39 7 111 10 160
7 127 19 313 30 470 3 39 7 108 10 155 6 100 14 239 20 330 2 36 7 106 10 155
3 50 7 126 11 170 3 44 7 114 9 155 7 120 14 240 20 315 5 70 13 205 20 320 7
115 15 250 20 315 5 70 13 198 20 320 2 41 7 111 9 155 3 44 8 118 11 165 3
47 7 114 10 150 3 36 7 108 10 160 3 52 7 124 10 160 2 36 7 108 10 160 3 52
7 127 10 165 3 39 7 108 10 155 5 90 12 189 21 308 3 39 3 72 0 72 -3 0 -6
-12 -7 -27z"/>
<path d="M1152 4365 c0 -16 2 -22 5 -12 2 9 2 23 0 30 -3 6 -5 -1 -5 -18z"/>
<path d="M1143 4310 c1 -11 5 -20 9 -20 3 0 6 9 5 20 -1 11 -5 20 -9 20 -3 0
-6 -9 -5 -20z"/>
<path d="M1139 4253 c0 -16 -2 -35 -3 -43 -5 -25 -17 -121 -22 -180 -5 -66
-10 -118 -18 -187 -8 -75 -18 -163 -31 -288 -11 -108 -17 -161 -21 -195 -2
-19 -6 -57 -9 -85 -3 -27 -7 -70 -10 -95 -8 -73 -15 -142 -20 -195 -2 -27 -7
-66 -9 -85 -6 -35 -15 -126 -21 -190 -5 -56 -15 -152 -19 -185 -2 -16 -7 -61
-10 -100 -4 -38 -9 -86 -11 -105 -5 -43 -13 -119 -20 -185 -10 -94 -16 -150
-20 -185 -2 -19 -7 -60 -10 -90 -13 -129 -17 -166 -20 -190 -2 -14 -7 -56 -11
-95 -7 -74 -8 -80 -18 -190 -4 -38 -9 -81 -11 -95 -4 -23 -12 -100 -20 -198
-2 -20 -4 -37 -5 -37 -1 0 -3 -22 -5 -50 -4 -52 -14 -142 -20 -185 -2 -14 -7
-56 -10 -95 -3 -38 -8 -81 -10 -95 -2 -14 -7 -54 -10 -90 -3 -36 -8 -81 -10
-100 -2 -19 -6 -60 -9 -90 -3 -30 -8 -73 -10 -95 -3 -22 -8 -65 -11 -95 -3
-30 -8 -76 -11 -102 l-5 -47 90 0 c50 0 93 4 95 8 3 4 8 54 11 112 3 57 8 136
10 174 3 39 7 104 10 146 3 42 8 111 10 155 8 136 15 237 20 299 2 33 7 103
10 155 10 169 13 209 20 220 3 5 1 10 -5 10 -6 0 -9 4 -6 9 3 5 8 44 11 87 3
44 7 106 10 139 2 33 7 110 11 170 3 61 8 130 10 155 10 152 15 231 29 455 3
55 8 127 10 160 6 92 16 243 20 310 8 119 15 225 20 312 4 48 8 115 10 148 2
33 6 94 9 135 3 41 8 120 11 175 4 55 8 123 10 150 2 28 6 97 10 155 3 58 8
132 10 165 2 33 7 103 11 155 3 52 8 98 11 103 2 4 -1 7 -6 7 -6 0 -11 -12
-12 -27z"/>
</g>
</svg>
