<?xml version="1.0" encoding="UTF-8" standalone="no"?>
<svg xmlns:dc="http://purl.org/dc/elements/1.1/" xmlns:cc="http://creativecommons.org/ns#"
  xmlns:rdf="http://www.w3.org/1999/02/22-rdf-syntax-ns#" xmlns:svg="http://www.w3.org/2000/svg"
  xmlns="http://www.w3.org/2000/svg" viewBox="0 0 601.33331 165.33333" height="165.33333" width="601.33331"
  xml:space="preserve" id="svg2" version="1.1">
  <metadata id="metadata8">
    <rdf:RDF>
      <cc:Work rdf:about="">
        <dc:format>image/svg+xml</dc:format>
        <dc:type rdf:resource="http://purl.org/dc/dcmitype/StillImage" />
      </cc:Work>
    </rdf:RDF>
  </metadata>
  <defs id="defs6" />
  <g transform="matrix(1.3333333,0,0,-1.3333333,0,165.33333)" id="g10">
    <g transform="scale(0.1)" id="g12">
      <path id="path14" style="fill:#0f70b8;fill-opacity:1;fill-rule:evenodd;stroke:none"
        d="M 437.461,2.19141 441.84,1227.5 402.379,2.19141 h 35.082" />
      <path id="path16" style="fill:#0f70b8;fill-opacity:1;fill-rule:evenodd;stroke:none"
        d="M 364.961,2.19141 382.27,1168.71 329.879,2.19141 h 35.082" />
      <path id="path18" style="fill:#0f70b8;fill-opacity:1;fill-rule:evenodd;stroke:none"
        d="M 290,2.19141 328.711,1116.72 254.961,2.19141 H 290" />
      <path id="path20" style="fill:#0f70b8;fill-opacity:1;fill-rule:evenodd;stroke:none"
        d="M 226.762,2.19141 269.879,1057.11 191.762,2.19141 h 35" />
      <path id="path22" style="fill:#0f70b8;fill-opacity:1;fill-rule:evenodd;stroke:none"
        d="M 161.52,2.19141 216.289,1001.13 126.48,2.19141 h 35.04" />
      <path id="path24" style="fill:#0f70b8;fill-opacity:1;fill-rule:evenodd;stroke:none"
        d="M 95.4297,2.19141 154.262,936.25 60.4297,2.19141 h 35" />
      <path id="path26" style="fill:#0f70b8;fill-opacity:1;fill-rule:evenodd;stroke:none"
        d="M 35.0391,2.19141 90.2305,854.922 0,2.19141 h 35.0391" />
      <path id="path28" style="fill:#303535;fill-opacity:1;fill-rule:evenodd;stroke:none"
        d="M 487.379,2.58203 485.391,1240 882.148,855.309 977.191,2.58203 H 487.379" />
      <path id="path30" style="fill:#313638;fill-opacity:1;fill-rule:nonzero;stroke:none"
        d="m 1081.52,808.828 c 4.26,0.192 9.26,0.391 15,0.621 5.82,0.199 11.14,0.321 15.94,0.321 11.95,0 21.56,-2.93 28.75,-8.75 7.27,-5.86 10.94,-14.5 10.94,-25.942 0,-5.308 -1.1,-10.156 -3.28,-14.527 -2.19,-4.379 -5.71,-8.129 -10.47,-11.25 8.12,-2.621 14.41,-6.84 18.9,-12.66 4.58,-5.743 6.88,-13.051 6.88,-21.871 0,-5.629 -1.02,-10.942 -2.97,-15.942 -1.99,-5 -5.08,-9.379 -9.22,-13.129 -4.18,-3.75 -9.37,-6.719 -15.62,-8.898 -6.17,-2.192 -13.4,-3.281 -21.72,-3.281 -6.56,0 -12.66,0.269 -18.28,0.781 -5.63,0.429 -10.59,0.929 -14.85,1.558 z m 32.5,-122.027 c 10.94,0 19.22,2.5 24.85,7.5 5.7,5 8.59,12.34 8.59,22.027 0,7.692 -2.62,13.793 -7.81,18.281 -5.12,4.45 -13.75,6.719 -25.94,6.719 -3.05,0 -6.01,-0.078 -8.91,-0.156 -2.81,0 -5.58,-0.121 -8.28,-0.313 V 687.27 c 5.32,-0.321 11.14,-0.469 17.5,-0.469 z m -5.15,65.929 c 8.43,0 14.92,2.11 19.53,6.411 4.69,4.379 7.03,10.238 7.03,17.66 0,5.929 -1.64,10.66 -4.84,14.219 -3.25,3.628 -8.87,5.46 -16.88,5.46 -3.05,0 -6.01,-0.07 -8.91,-0.152 -2.81,0 -5.58,-0.078 -8.28,-0.156 v -43.121 c 1.88,-0.242 3.83,-0.321 5.94,-0.321 2.07,0 4.22,0 6.41,0 z m 159.68,-76.871 h -74.53 v 132.969 h 15 V 689.922 h 59.53 z" />
      <path id="path32" style="fill:#313638;fill-opacity:1;fill-rule:nonzero;stroke:none"
        d="m 1344.53,809.77 c 10.51,0 19.77,-1.84 27.81,-5.469 8.01,-3.563 14.77,-8.442 20.32,-14.692 5.5,-6.25 9.68,-13.519 12.5,-21.718 2.81,-8.243 4.22,-16.84 4.22,-25.782 0,-8.871 -1.41,-17.461 -4.22,-25.781 -2.74,-8.238 -6.88,-15.547 -12.5,-21.879 -5.55,-6.359 -12.43,-11.48 -20.63,-15.308 -8.24,-3.75 -17.89,-5.621 -28.91,-5.621 -10.74,0 -20.07,1.789 -27.96,5.308 -7.93,3.633 -14.54,8.512 -19.85,14.692 -5.23,6.25 -9.14,13.429 -11.72,21.558 -2.61,8.121 -3.9,16.641 -3.9,25.621 0,9.571 1.44,18.52 4.37,26.879 2.89,8.442 7.07,15.781 12.5,22.031 5.51,6.25 12.27,11.129 20.32,14.692 8.12,3.629 17.34,5.469 27.65,5.469 z m -0.94,-122.969 c 8.75,0 16.18,1.398 22.35,4.219 6.25,2.808 11.33,6.64 15.31,11.558 4.06,5 7.03,10.82 8.91,17.5 1.87,6.641 2.81,13.793 2.81,21.402 0,8.211 -1.02,15.668 -2.97,22.348 -1.99,6.762 -4.96,12.543 -8.91,17.344 -3.98,4.879 -9.02,8.629 -15.15,11.25 -6.17,2.699 -13.52,4.058 -22.03,4.058 -8.56,0 -15.86,-1.32 -21.88,-3.902 -6.05,-2.617 -10.94,-6.328 -14.69,-11.098 -3.75,-4.8 -6.52,-10.46 -8.28,-17.031 -1.79,-6.558 -2.65,-13.828 -2.65,-21.719 0,-18.55 3.98,-32.5 12.03,-41.871 8.12,-9.379 19.84,-14.058 35.15,-14.058 z" />
      <path id="path34" style="fill:#313638;fill-opacity:1;fill-rule:nonzero;stroke:none"
        d="m 1496.76,809.77 c 10.51,0 19.76,-1.84 27.81,-5.469 8.01,-3.563 14.77,-8.442 20.31,-14.692 5.51,-6.25 9.69,-13.519 12.5,-21.718 2.82,-8.243 4.22,-16.84 4.22,-25.782 0,-8.871 -1.4,-17.461 -4.22,-25.781 -2.73,-8.238 -6.87,-15.547 -12.5,-21.879 -5.54,-6.359 -12.42,-11.48 -20.62,-15.308 -8.24,-3.75 -17.89,-5.621 -28.91,-5.621 -10.74,0 -20.08,1.789 -27.97,5.308 -7.93,3.633 -14.53,8.512 -19.84,14.692 -5.24,6.25 -9.14,13.429 -11.72,21.558 -2.62,8.121 -3.91,16.641 -3.91,25.621 0,9.571 1.45,18.52 4.38,26.879 2.89,8.442 7.07,15.781 12.5,22.031 5.51,6.25 12.26,11.129 20.31,14.692 8.13,3.629 17.35,5.469 27.66,5.469 z m -0.94,-122.969 c 8.75,0 16.17,1.398 22.34,4.219 6.25,2.808 11.33,6.64 15.32,11.558 4.06,5 7.03,10.82 8.9,17.5 1.88,6.641 2.82,13.793 2.82,21.402 0,8.211 -1.02,15.668 -2.97,22.348 -2,6.762 -4.96,12.543 -8.91,17.344 -3.98,4.879 -9.02,8.629 -15.16,11.25 -6.17,2.699 -13.51,4.058 -22.03,4.058 -8.55,0 -15.86,-1.32 -21.87,-3.902 -6.06,-2.617 -10.94,-6.328 -14.69,-11.098 -3.75,-4.8 -6.52,-10.46 -8.28,-17.031 -1.8,-6.558 -2.66,-13.828 -2.66,-21.719 0,-18.55 3.99,-32.5 12.03,-41.871 8.13,-9.379 19.85,-14.058 35.16,-14.058 z" />
      <path id="path36" style="fill:#313638;fill-opacity:1;fill-rule:nonzero;stroke:none"
        d="m 1658.36,694.77 45,114.058 h 19.37 V 675.859 h -15.15 v 100.469 l -40.63,-100.469 h -18.12 l -40.94,100.782 V 675.859 h -15 v 132.969 h 20.31 z" />
      <path id="path38" style="fill:#313638;fill-opacity:1;fill-rule:nonzero;stroke:none"
        d="m 1906.21,786.641 c -4.3,2.808 -9.61,5.16 -15.94,7.031 -6.36,1.879 -13.55,2.808 -21.56,2.808 -8.98,0 -16.56,-1.32 -22.81,-3.902 -6.17,-2.617 -11.17,-6.25 -15,-10.937 -3.75,-4.692 -6.52,-10.391 -8.28,-17.032 -1.68,-6.679 -2.5,-14.019 -2.5,-22.031 0,-18.437 3.98,-32.348 12.03,-41.719 8.12,-9.379 20.19,-14.058 36.25,-14.058 8.44,0 16.17,1.168 23.28,3.59 7.07,2.379 12.81,5.347 17.19,8.91 l 3.9,-13.602 c -5.31,-3.238 -11.79,-6.09 -19.37,-8.59 -7.62,-2.379 -16.17,-3.589 -25.63,-3.589 -11.05,0 -20.62,1.789 -28.75,5.308 -8.04,3.633 -14.68,8.512 -20,14.692 -5.31,6.25 -9.29,13.429 -11.87,21.558 -2.5,8.121 -3.75,16.723 -3.75,25.781 0,9.571 1.4,18.52 4.22,26.871 2.89,8.321 7.11,15.629 12.65,21.879 5.63,6.25 12.54,11.129 20.78,14.692 8.21,3.629 17.86,5.469 28.91,5.469 7.19,0 14.42,-0.79 21.72,-2.348 7.27,-1.481 13.52,-3.551 18.75,-6.25 z" />
      <path id="path40" style="fill:#313638;fill-opacity:1;fill-rule:nonzero;stroke:none"
        d="m 1994.73,809.77 c 10.5,0 19.76,-1.84 27.81,-5.469 8.01,-3.563 14.76,-8.442 20.31,-14.692 5.51,-6.25 9.69,-13.519 12.5,-21.718 2.81,-8.243 4.22,-16.84 4.22,-25.782 0,-8.871 -1.41,-17.461 -4.22,-25.781 -2.73,-8.238 -6.87,-15.547 -12.5,-21.879 -5.55,-6.359 -12.42,-11.48 -20.62,-15.308 -8.25,-3.75 -17.89,-5.621 -28.91,-5.621 -10.74,0 -20.08,1.789 -27.97,5.308 -7.93,3.633 -14.53,8.512 -19.84,14.692 -5.24,6.25 -9.14,13.429 -11.72,21.558 -2.62,8.121 -3.91,16.641 -3.91,25.621 0,9.571 1.45,18.52 4.38,26.879 2.89,8.442 7.07,15.781 12.5,22.031 5.51,6.25 12.26,11.129 20.31,14.692 8.13,3.629 17.34,5.469 27.66,5.469 z m -0.94,-122.969 c 8.75,0 16.17,1.398 22.34,4.219 6.25,2.808 11.33,6.64 15.32,11.558 4.06,5 7.03,10.82 8.9,17.5 1.88,6.641 2.81,13.793 2.81,21.402 0,8.211 -1.01,15.668 -2.96,22.348 -2,6.762 -4.97,12.543 -8.91,17.344 -3.99,4.879 -9.02,8.629 -15.16,11.25 -6.17,2.699 -13.51,4.058 -22.03,4.058 -8.55,0 -15.86,-1.32 -21.87,-3.902 -6.06,-2.617 -10.94,-6.328 -14.69,-11.098 -3.75,-4.8 -6.52,-10.46 -8.28,-17.031 -1.8,-6.558 -2.66,-13.828 -2.66,-21.719 0,-18.55 3.99,-32.5 12.03,-41.871 8.13,-9.379 19.85,-14.058 35.16,-14.058 z" />
      <path id="path42" style="fill:#313638;fill-opacity:1;fill-rule:nonzero;stroke:none"
        d="m 2105.9,784.609 v -108.75 h -15 v 132.969 h 18.28 l 68.44,-109.058 v 109.058 h 15.15 V 675.859 h -18.28 z" />
      <path id="path44" style="fill:#313638;fill-opacity:1;fill-rule:nonzero;stroke:none"
        d="m 2240.31,776.801 c 0,-3.36 0.63,-6.18 1.88,-8.442 1.25,-2.187 3.2,-4.179 5.93,-5.937 2.82,-1.684 6.29,-3.281 10.47,-4.844 4.26,-1.558 9.38,-3.359 15.32,-5.308 5,-1.68 9.88,-3.559 14.68,-5.629 4.89,-2.11 9.22,-4.653 12.97,-7.661 3.83,-3.039 6.92,-6.789 9.22,-11.25 2.27,-4.492 3.44,-9.96 3.44,-16.402 0,-6.879 -1.37,-12.777 -4.06,-17.656 -2.74,-4.801 -6.33,-8.711 -10.78,-11.723 -4.38,-3.039 -9.5,-5.148 -15.32,-6.398 -5.74,-1.332 -11.68,-2.031 -17.81,-2.031 -8.75,0 -16.87,1.05 -24.37,3.121 -7.5,2.187 -14.03,4.769 -19.54,7.808 l 4.22,14.852 c 2.58,-1.801 5.16,-3.442 7.66,-5 2.58,-1.571 5.39,-2.93 8.44,-4.071 3,-1.05 6.29,-1.871 9.84,-2.5 3.63,-0.621 7.81,-0.929 12.5,-0.929 6.02,0 11.17,0.5 15.47,1.558 4.37,1.02 7.85,2.539 10.47,4.532 2.69,1.949 4.68,4.257 5.94,6.879 1.24,2.691 1.87,5.621 1.87,8.75 0,4.57 -1.09,8.429 -3.28,11.558 -2.19,3.121 -5,5.82 -8.44,8.121 -3.36,2.27 -7.11,4.223 -11.25,5.781 -4.06,1.571 -8.12,3.008 -12.19,4.379 -5.74,1.871 -10.93,3.832 -15.62,5.942 -4.69,2.179 -8.71,4.719 -12.03,7.648 -3.24,3.012 -5.78,6.449 -7.66,10.321 -1.8,3.82 -2.66,8.468 -2.66,13.902 0,6.019 1.1,11.129 3.29,15.308 2.18,4.258 5.19,7.739 9.06,10.469 3.83,2.699 8.36,4.692 13.59,5.942 5.2,1.25 10.82,1.879 16.88,1.879 7.26,0 14.26,-0.75 20.94,-2.192 6.75,-1.488 12.5,-3.277 17.18,-5.469 l -4.22,-15.468 c -2.18,1.879 -4.76,3.437 -7.65,4.687 -2.81,1.25 -5.86,2.223 -9.07,2.973 -3.12,0.82 -6.24,1.398 -9.37,1.719 -3.05,0.308 -5.9,0.46 -8.59,0.46 -8.44,0 -15.12,-1.558 -20,-4.679 -4.93,-3.129 -7.35,-8.129 -7.35,-15 z" />
      <path id="path46" style="fill:#313638;fill-opacity:1;fill-rule:nonzero;stroke:none"
        d="m 2427.19,794.77 h -42.5 V 675.859 h -15.16 V 794.77 h -42.5 v 14.058 h 100.16 z" />
      <path id="path48" style="fill:#313638;fill-opacity:1;fill-rule:nonzero;stroke:none"
        d="m 2450.82,808.828 c 4.69,0.192 9.69,0.391 15,0.621 5.31,0.199 10.31,0.321 15,0.321 7.19,0 13.75,-0.86 19.69,-2.5 5.94,-1.68 10.97,-4.149 15.15,-7.348 4.26,-3.242 7.54,-7.262 9.85,-12.031 2.38,-4.692 3.59,-10.161 3.59,-16.411 0,-8.55 -2.46,-16.21 -7.34,-22.96 -4.81,-6.68 -12.19,-11.372 -22.19,-14.071 l 50.94,-58.59 h -18.75 l -49.85,56.719 c -5.86,0 -11.21,0.192 -16.09,0.621 v -57.34 h -15 z m 31.09,-12.348 c -2.81,0 -5.62,-0.07 -8.43,-0.152 -2.74,0 -5.28,-0.078 -7.66,-0.156 v -49.844 c 2.38,-0.238 4.92,-0.308 7.66,-0.308 2.81,0 5.78,0 8.9,0 9.89,0 17.35,2.261 22.35,6.871 5.07,4.687 7.65,11.449 7.65,20.308 0,6.961 -2.26,12.582 -6.72,16.879 -4.49,4.262 -12.42,6.402 -23.75,6.402 z" />
      <path id="path50" style="fill:#313638;fill-opacity:1;fill-rule:nonzero;stroke:none"
        d="m 2584.38,727.422 c 0,-14.492 3.16,-24.922 9.53,-31.25 6.44,-6.25 15.31,-9.371 26.56,-9.371 11.25,0 20.08,3.121 26.56,9.371 6.45,6.328 9.69,16.758 9.69,31.25 v 81.406 h 14.06 v -88.277 c 0,-6.571 -1.01,-12.742 -2.97,-18.442 -1.99,-5.738 -5.08,-10.738 -9.22,-15 -4.18,-4.179 -9.45,-7.461 -15.78,-9.839 -6.36,-2.391 -13.83,-3.598 -22.34,-3.598 -9.38,0 -17.35,1.207 -23.91,3.598 -6.48,2.378 -11.72,5.66 -15.78,9.839 -4.06,4.262 -6.99,9.262 -8.75,15 -1.8,5.7 -2.65,11.871 -2.65,18.442 v 88.277 h 15 z" />
      <path id="path52" style="fill:#313638;fill-opacity:1;fill-rule:nonzero;stroke:none"
        d="m 2803.48,786.641 c -4.3,2.808 -9.61,5.16 -15.94,7.031 -6.37,1.879 -13.56,2.808 -21.56,2.808 -8.99,0 -16.57,-1.32 -22.82,-3.902 -6.17,-2.617 -11.17,-6.25 -15,-10.937 -3.75,-4.692 -6.52,-10.391 -8.28,-17.032 -1.68,-6.679 -2.5,-14.019 -2.5,-22.031 0,-18.437 3.99,-32.348 12.03,-41.719 8.13,-9.379 20.2,-14.058 36.25,-14.058 8.44,0 16.18,1.168 23.29,3.59 7.07,2.379 12.81,5.347 17.18,8.91 l 3.91,-13.602 c -5.31,-3.238 -11.8,-6.09 -19.38,-8.59 -7.61,-2.379 -16.17,-3.589 -25.62,-3.589 -11.06,0 -20.63,1.789 -28.75,5.308 -8.05,3.633 -14.69,8.512 -20,14.692 -5.31,6.25 -9.3,13.429 -11.88,21.558 -2.5,8.121 -3.75,16.723 -3.75,25.781 0,9.571 1.41,18.52 4.22,26.871 2.89,8.321 7.11,15.629 12.66,21.879 5.62,6.25 12.54,11.129 20.78,14.692 8.2,3.629 17.85,5.469 28.91,5.469 7.18,0 14.41,-0.79 21.72,-2.348 7.26,-1.481 13.51,-3.551 18.75,-6.25 z" />
      <path id="path54" style="fill:#313638;fill-opacity:1;fill-rule:nonzero;stroke:none"
        d="m 2922.42,794.77 h -42.5 V 675.859 h -15.15 V 794.77 h -42.5 v 14.058 h 100.15 z" />
      <path id="path56" style="fill:#313638;fill-opacity:1;fill-rule:nonzero;stroke:none"
        d="m 2946.05,675.859 h 15 v 132.969 h -15 z" />
      <path id="path58" style="fill:#313638;fill-opacity:1;fill-rule:nonzero;stroke:none"
        d="m 3057.23,809.77 c 10.5,0 19.76,-1.84 27.81,-5.469 8.01,-3.563 14.76,-8.442 20.31,-14.692 5.51,-6.25 9.69,-13.519 12.5,-21.718 2.81,-8.243 4.22,-16.84 4.22,-25.782 0,-8.871 -1.41,-17.461 -4.22,-25.781 -2.73,-8.238 -6.87,-15.547 -12.5,-21.879 -5.55,-6.359 -12.42,-11.48 -20.62,-15.308 -8.25,-3.75 -17.89,-5.621 -28.91,-5.621 -10.74,0 -20.08,1.789 -27.97,5.308 -7.93,3.633 -14.53,8.512 -19.84,14.692 -5.24,6.25 -9.14,13.429 -11.72,21.558 -2.62,8.121 -3.91,16.641 -3.91,25.621 0,9.571 1.45,18.52 4.38,26.879 2.89,8.442 7.07,15.781 12.5,22.031 5.51,6.25 12.26,11.129 20.31,14.692 8.13,3.629 17.34,5.469 27.66,5.469 z m -0.94,-122.969 c 8.75,0 16.17,1.398 22.34,4.219 6.25,2.808 11.33,6.64 15.32,11.558 4.06,5 7.03,10.82 8.9,17.5 1.88,6.641 2.81,13.793 2.81,21.402 0,8.211 -1.01,15.668 -2.96,22.348 -2,6.762 -4.97,12.543 -8.91,17.344 -3.99,4.879 -9.02,8.629 -15.16,11.25 -6.17,2.699 -13.51,4.058 -22.03,4.058 -8.55,0 -15.86,-1.32 -21.87,-3.902 -6.06,-2.617 -10.94,-6.328 -14.69,-11.098 -3.75,-4.8 -6.52,-10.46 -8.28,-17.031 -1.8,-6.558 -2.66,-13.828 -2.66,-21.719 0,-18.55 3.99,-32.5 12.03,-41.871 8.13,-9.379 19.85,-14.058 35.16,-14.058 z" />
      <path id="path60" style="fill:#313638;fill-opacity:1;fill-rule:nonzero;stroke:none"
        d="m 3168.36,784.609 v -108.75 h -15 v 132.969 h 18.28 l 68.44,-109.058 v 109.058 h 15.15 V 675.859 h -18.28 z" />
      <path id="path62" style="fill:#313638;fill-opacity:1;fill-rule:nonzero;stroke:none"
        d="m 3438.36,786.641 c -4.3,2.808 -9.61,5.16 -15.94,7.031 -6.37,1.879 -13.55,2.808 -21.56,2.808 -8.98,0 -16.56,-1.32 -22.81,-3.902 -6.17,-2.617 -11.17,-6.25 -15,-10.937 -3.75,-4.692 -6.53,-10.391 -8.28,-17.032 -1.68,-6.679 -2.5,-14.019 -2.5,-22.031 0,-18.437 3.98,-32.348 12.03,-41.719 8.12,-9.379 20.19,-14.058 36.25,-14.058 8.43,0 16.17,1.168 23.28,3.59 7.07,2.379 12.81,5.347 17.19,8.91 l 3.9,-13.602 c -5.31,-3.238 -11.8,-6.09 -19.37,-8.59 -7.62,-2.379 -16.17,-3.589 -25.63,-3.589 -11.05,0 -20.62,1.789 -28.75,5.308 -8.05,3.633 -14.69,8.512 -20,14.692 -5.31,6.25 -9.29,13.429 -11.87,21.558 -2.5,8.121 -3.75,16.723 -3.75,25.781 0,9.571 1.4,18.52 4.22,26.871 2.89,8.321 7.11,15.629 12.65,21.879 5.63,6.25 12.54,11.129 20.78,14.692 8.21,3.629 17.85,5.469 28.91,5.469 7.19,0 14.41,-0.79 21.72,-2.348 7.26,-1.481 13.51,-3.551 18.75,-6.25 z" />
      <path id="path64" style="fill:#313638;fill-opacity:1;fill-rule:nonzero;stroke:none"
        d="m 3526.88,809.77 c 10.5,0 19.76,-1.84 27.81,-5.469 8.01,-3.563 14.76,-8.442 20.31,-14.692 5.51,-6.25 9.69,-13.519 12.5,-21.718 2.81,-8.243 4.22,-16.84 4.22,-25.782 0,-8.871 -1.41,-17.461 -4.22,-25.781 -2.73,-8.238 -6.88,-15.547 -12.5,-21.879 -5.55,-6.359 -12.42,-11.48 -20.62,-15.308 -8.25,-3.75 -17.9,-5.621 -28.91,-5.621 -10.74,0 -20.08,1.789 -27.97,5.308 -7.93,3.633 -14.53,8.512 -19.84,14.692 -5.24,6.25 -9.14,13.429 -11.72,21.558 -2.62,8.121 -3.91,16.641 -3.91,25.621 0,9.571 1.45,18.52 4.38,26.879 2.89,8.442 7.07,15.781 12.5,22.031 5.5,6.25 12.26,11.129 20.31,14.692 8.12,3.629 17.34,5.469 27.66,5.469 z m -0.94,-122.969 c 8.75,0 16.17,1.398 22.34,4.219 6.25,2.808 11.33,6.64 15.31,11.558 4.07,5 7.03,10.82 8.91,17.5 1.88,6.641 2.81,13.793 2.81,21.402 0,8.211 -1.01,15.668 -2.97,22.348 -1.99,6.762 -4.96,12.543 -8.9,17.344 -3.99,4.879 -9.03,8.629 -15.16,11.25 -6.17,2.699 -13.51,4.058 -22.03,4.058 -8.55,0 -15.86,-1.32 -21.87,-3.902 -6.06,-2.617 -10.94,-6.328 -14.69,-11.098 -3.75,-4.8 -6.53,-10.46 -8.28,-17.031 -1.8,-6.558 -2.66,-13.828 -2.66,-21.719 0,-18.55 3.98,-32.5 12.03,-41.871 8.13,-9.379 19.84,-14.058 35.16,-14.058 z" />
      <path id="path66" style="fill:#313638;fill-opacity:1;fill-rule:nonzero;stroke:none"
        d="m 3638.01,784.609 v -108.75 h -15 v 132.969 h 18.28 l 68.44,-109.058 v 109.058 h 15.15 V 675.859 h -18.28 z" />
      <path id="path68" style="fill:#313638;fill-opacity:1;fill-rule:nonzero;stroke:none"
        d="m 3772.46,776.801 c 0,-3.36 0.63,-6.18 1.88,-8.442 1.25,-2.187 3.2,-4.179 5.93,-5.937 2.82,-1.684 6.29,-3.281 10.47,-4.844 4.26,-1.558 9.38,-3.359 15.31,-5.308 5,-1.68 9.89,-3.559 14.69,-5.629 4.88,-2.11 9.22,-4.653 12.97,-7.661 3.83,-3.039 6.91,-6.789 9.22,-11.25 2.27,-4.492 3.44,-9.96 3.44,-16.402 0,-6.879 -1.37,-12.777 -4.07,-17.656 -2.73,-4.801 -6.32,-8.711 -10.78,-11.723 -4.37,-3.039 -9.49,-5.148 -15.31,-6.398 -5.74,-1.332 -11.68,-2.031 -17.81,-2.031 -8.75,0 -16.88,1.05 -24.38,3.121 -7.5,2.187 -14.02,4.769 -19.53,7.808 l 4.22,14.852 c 2.58,-1.801 5.16,-3.442 7.66,-5 2.58,-1.571 5.39,-2.93 8.43,-4.071 3.01,-1.05 6.29,-1.871 9.85,-2.5 3.63,-0.621 7.81,-0.929 12.5,-0.929 6.01,0 11.17,0.5 15.47,1.558 4.37,1.02 7.85,2.539 10.47,4.532 2.69,1.949 4.68,4.257 5.93,6.879 1.25,2.691 1.88,5.621 1.88,8.75 0,4.57 -1.1,8.429 -3.28,11.558 -2.19,3.121 -5,5.82 -8.44,8.121 -3.36,2.27 -7.11,4.223 -11.25,5.781 -4.06,1.571 -8.13,3.008 -12.19,4.379 -5.74,1.871 -10.94,3.832 -15.62,5.942 -4.69,2.179 -8.71,4.719 -12.03,7.648 -3.25,3.012 -5.79,6.449 -7.66,10.321 -1.8,3.82 -2.66,8.468 -2.66,13.902 0,6.019 1.1,11.129 3.28,15.308 2.19,4.258 5.2,7.739 9.07,10.469 3.83,2.699 8.36,4.692 13.59,5.942 5.2,1.25 10.82,1.879 16.88,1.879 7.26,0 14.25,-0.75 20.93,-2.192 6.76,-1.488 12.5,-3.277 17.19,-5.469 l -4.22,-15.468 c -2.19,1.879 -4.76,3.437 -7.65,4.687 -2.82,1.25 -5.86,2.223 -9.07,2.973 -3.12,0.82 -6.25,1.398 -9.37,1.719 -3.05,0.308 -5.9,0.46 -8.6,0.46 -8.43,0 -15.11,-1.558 -20,-4.679 -4.92,-3.129 -7.34,-8.129 -7.34,-15 z" />
      <path id="path70" style="fill:#313638;fill-opacity:1;fill-rule:nonzero;stroke:none"
        d="m 3889.14,727.422 c 0,-14.492 3.16,-24.922 9.53,-31.25 6.45,-6.25 15.31,-9.371 26.56,-9.371 11.25,0 20.08,3.121 26.57,9.371 6.44,6.328 9.68,16.758 9.68,31.25 v 81.406 h 14.07 v -88.277 c 0,-6.571 -1.02,-12.742 -2.97,-18.442 -1.99,-5.738 -5.08,-10.738 -9.22,-15 -4.18,-4.179 -9.45,-7.461 -15.78,-9.839 -6.37,-2.391 -13.83,-3.598 -22.35,-3.598 -9.37,0 -17.34,1.207 -23.9,3.598 -6.49,2.378 -11.72,5.66 -15.78,9.839 -4.07,4.262 -7,9.262 -8.75,15 -1.8,5.7 -2.66,11.871 -2.66,18.442 v 88.277 h 15 z" />
      <path id="path72" style="fill:#313638;fill-opacity:1;fill-rule:nonzero;stroke:none"
        d="m 4088.55,675.859 h -74.53 v 132.969 h 15 V 689.922 h 59.53 z" />
      <path id="path74" style="fill:#313638;fill-opacity:1;fill-rule:nonzero;stroke:none"
        d="m 4180.78,794.77 h -42.5 V 675.859 h -15.16 V 794.77 h -42.5 v 14.058 h 100.16 z" />
      <path id="path76" style="fill:#313638;fill-opacity:1;fill-rule:nonzero;stroke:none"
        d="m 4204.41,675.859 h 15 v 132.969 h -15 z" />
      <path id="path78" style="fill:#313638;fill-opacity:1;fill-rule:nonzero;stroke:none"
        d="m 4274.49,784.609 v -108.75 h -15 v 132.969 h 18.28 l 68.44,-109.058 v 109.058 h 15.16 V 675.859 h -18.28 z" />
      <path id="path80" style="fill:#313638;fill-opacity:1;fill-rule:nonzero;stroke:none"
        d="m 4503.28,686.949 c -6.05,-4.058 -12.93,-7.34 -20.62,-9.84 -7.74,-2.379 -16.33,-3.589 -25.78,-3.589 -11.06,0 -20.63,1.789 -28.76,5.308 -8.04,3.633 -14.68,8.512 -20,14.692 -5.31,6.25 -9.29,13.429 -11.87,21.558 -2.5,8.121 -3.75,16.723 -3.75,25.781 0,9.571 1.41,18.52 4.22,26.871 2.89,8.321 7.11,15.629 12.66,21.879 5.62,6.25 12.53,11.129 20.78,14.692 8.2,3.629 17.85,5.469 28.9,5.469 7.82,0 15.35,-0.79 22.66,-2.348 7.38,-1.481 13.98,-3.551 19.84,-6.25 l -4.22,-14.531 c -4.29,2.808 -9.84,5.16 -16.72,7.031 -6.79,1.879 -14.37,2.808 -22.81,2.808 -8.98,0 -16.56,-1.32 -22.81,-3.902 -6.17,-2.617 -11.17,-6.25 -15,-10.937 -3.75,-4.692 -6.52,-10.391 -8.28,-17.032 -1.68,-6.679 -2.5,-14.019 -2.5,-22.031 0,-18.437 3.98,-32.348 12.03,-41.719 8.13,-9.379 20.2,-14.058 36.25,-14.058 5.82,0 11.33,0.539 16.56,1.719 5.2,1.25 9.92,2.808 14.22,4.679 v 37.5 h 15 z" />
      <path id="path82" style="fill:#1072ba;fill-opacity:1;fill-rule:nonzero;stroke:none"
        d="m 1165.9,491.328 -35.94,-105.469 h -18.44 l -50.15,127.5 h 16.4 l 42.97,-109.058 37.19,109.058 h 16.41 l 39.68,-108.75 38.91,108.75 h 15.47 l -45.47,-127.5 h -18.44 z m 150.98,-13.598 c 11.32,0 20.07,-2.929 26.24,-8.75 6.26,-5.742 9.38,-13.82 9.38,-24.21 0,-2.192 -0.16,-4.461 -0.47,-6.719 -0.23,-2.192 -0.62,-3.832 -1.25,-4.852 h -65.16 v -1.871 c 0,-4.918 0.63,-9.648 1.88,-14.219 1.33,-4.488 3.28,-8.519 5.78,-12.031 2.58,-3.437 5.86,-6.207 9.84,-8.277 3.95,-2 8.64,-2.973 14.07,-2.973 3.01,0 5.97,0.313 8.9,0.942 3.01,0.699 5.86,1.601 8.6,2.652 2.69,1.129 5.19,2.348 7.5,3.598 2.38,1.32 4.45,2.652 6.25,3.902 l 2.34,-10.942 c -1.68,-1.05 -3.75,-2.179 -6.25,-3.429 -2.42,-1.172 -5.12,-2.27 -8.12,-3.281 -2.93,-1.059 -6.18,-1.918 -9.69,-2.661 -3.56,-0.699 -7.27,-1.089 -11.1,-1.089 -7.3,0 -13.71,1.25 -19.21,3.75 -5.55,2.5 -10.16,5.851 -13.91,10.152 -3.75,4.379 -6.64,9.379 -8.59,15 -1.88,5.699 -2.82,11.719 -2.82,17.969 0,6.25 0.98,12.23 2.97,17.968 1.96,5.7 4.89,10.782 8.75,15.161 3.95,4.371 8.79,7.808 14.53,10.308 5.71,2.582 12.23,3.902 19.54,3.902 z m -0.47,-10.929 c -8.56,0 -15.16,-2.27 -19.85,-6.723 -4.68,-4.379 -7.89,-9.918 -9.53,-16.558 h 52.66 c 0.19,0.621 0.31,1.171 0.31,1.71 0,0.508 0,1.098 0,1.719 0,3.211 -0.7,6.102 -2.03,8.602 -1.25,2.5 -2.97,4.57 -5.16,6.25 -2.19,1.64 -4.76,2.89 -7.65,3.75 -2.82,0.82 -5.75,1.25 -8.75,1.25 z" />
      <path id="path84" style="fill:#1072ba;fill-opacity:1;fill-rule:nonzero;stroke:none"
        d="m 1491.17,403.98 43.44,109.379 h 18.44 v -127.5 h -14.38 v 96.411 l -39.06,-96.411 h -17.5 l -39.22,96.563 v -96.563 h -14.53 v 127.5 h 19.53 z" />
      <path id="path86" style="fill:#1072ba;fill-opacity:1;fill-rule:nonzero;stroke:none"
        d="m 1642.11,385.859 -1.56,15.782 h -0.78 c -1.57,-2.422 -3.68,-4.692 -6.25,-6.871 -2.5,-2.192 -5.4,-4.149 -8.6,-5.79 -3.12,-1.679 -6.56,-2.96 -10.31,-3.902 -3.67,-1.019 -7.27,-1.558 -10.78,-1.558 -8.56,0 -14.96,2.421 -19.22,7.339 -4.3,5 -6.41,11.25 -6.41,18.75 0,7.379 1.88,13.282 5.63,17.661 3.75,4.371 8.32,7.652 13.75,9.839 5.39,2.192 11.09,3.59 17.03,4.219 6.01,0.621 11.29,0.942 15.78,0.942 h 8.75 v 2.339 c 0,4.879 -0.7,8.629 -2.03,11.25 -1.37,2.582 -3.36,4.762 -5.94,6.563 -2.19,1.328 -4.53,2.348 -7.03,2.969 -2.5,0.629 -5.78,0.937 -9.84,0.937 -5.43,0 -10.24,-0.738 -14.38,-2.187 -4.18,-1.481 -8.2,-3.36 -12.03,-5.621 l -2.97,11.558 c 8.52,5.082 18.79,7.652 30.78,7.652 4.77,0 9.3,-0.46 13.6,-1.402 4.25,-0.859 8,-2.269 11.25,-4.219 3.75,-2.418 6.72,-5.738 8.9,-10 2.19,-4.179 3.28,-9.449 3.28,-15.781 v -60.469 z m -34.22,9.063 c 5.2,0 10.78,1.637 16.72,5 5.94,3.316 10.78,8.168 14.53,14.527 v 17.973 h -1.72 c -5.31,0 -10.62,-0.231 -15.94,-0.621 -5.23,-0.321 -10,-1.25 -14.37,-2.821 -4.3,-1.558 -7.77,-3.82 -10.47,-6.71 -2.73,-2.93 -4.06,-6.879 -4.06,-11.879 0,-5 1.33,-8.871 4.06,-11.563 2.81,-2.617 6.56,-3.906 11.25,-3.906 z" />
      <path id="path88" style="fill:#1072ba;fill-opacity:1;fill-rule:nonzero;stroke:none"
        d="m 1718.24,443.52 37.81,-57.661 h -15.31 l -32.03,48.282 -13.28,-13.282 v -35 h -13.59 v 142.969 h 13.59 V 437.27 l 39.06,37.5 h 15.47 z" />
      <path id="path90" style="fill:#1072ba;fill-opacity:1;fill-rule:nonzero;stroke:none"
        d="m 1810.08,477.73 c 11.33,0 20.08,-2.929 26.25,-8.75 6.25,-5.742 9.37,-13.82 9.37,-24.21 0,-2.192 -0.15,-4.461 -0.47,-6.719 -0.23,-2.192 -0.62,-3.832 -1.25,-4.852 h -65.15 v -1.871 c 0,-4.918 0.62,-9.648 1.87,-14.219 1.33,-4.488 3.28,-8.519 5.78,-12.031 2.58,-3.437 5.86,-6.207 9.85,-8.277 3.94,-2 8.63,-2.973 14.06,-2.973 3.01,0 5.98,0.313 8.91,0.942 3,0.699 5.86,1.601 8.59,2.652 2.7,1.129 5.2,2.348 7.5,3.598 2.38,1.32 4.45,2.652 6.25,3.902 l 2.34,-10.942 c -1.68,-1.05 -3.75,-2.179 -6.25,-3.429 -2.42,-1.172 -5.11,-2.27 -8.12,-3.281 -2.93,-1.059 -6.17,-1.918 -9.69,-2.661 -3.55,-0.699 -7.26,-1.089 -11.09,-1.089 -7.31,0 -13.71,1.25 -19.22,3.75 -5.55,2.5 -10.16,5.851 -13.91,10.152 -3.75,4.379 -6.64,9.379 -8.59,15 -1.88,5.699 -2.81,11.719 -2.81,17.969 0,6.25 0.97,12.23 2.97,17.968 1.95,5.7 4.88,10.782 8.75,15.161 3.94,4.371 8.78,7.808 14.53,10.308 5.7,2.582 12.22,3.902 19.53,3.902 z m -0.47,-10.929 c -8.56,0 -15.16,-2.27 -19.84,-6.723 -4.69,-4.379 -7.89,-9.918 -9.54,-16.558 h 52.66 c 0.2,0.621 0.31,1.171 0.31,1.71 0,0.508 0,1.098 0,1.719 0,3.211 -0.7,6.102 -2.03,8.602 -1.25,2.5 -2.97,4.57 -5.15,6.25 -2.19,1.64 -4.77,2.89 -7.66,3.75 -2.81,0.82 -5.74,1.25 -8.75,1.25 z" />
      <path id="path92" style="fill:#1072ba;fill-opacity:1;fill-rule:nonzero;stroke:none"
        d="m 1894.65,513.359 h 16.4 l 48.6,-111.25 44.22,111.25 h 15.47 l -50.63,-127.5 h -18.28 z" />
      <path id="path94" style="fill:#1072ba;fill-opacity:1;fill-rule:nonzero;stroke:none"
        d="m 2049.3,385.859 h -13.6016 v 88.9102 H 2049.3 Z m -16.41,121.411 c 0,2.57 0.94,4.878 2.81,6.871 1.88,2.07 4.14,3.129 6.88,3.129 2.58,0 4.88,-1.059 6.87,-3.129 2.07,-1.993 3.13,-4.301 3.13,-6.871 0,-2.739 -1.06,-5 -3.13,-6.879 -1.99,-1.871 -4.29,-2.813 -6.87,-2.813 -2.74,0 -5,0.942 -6.88,2.813 -1.87,1.879 -2.81,4.14 -2.81,6.879 z" />
      <path id="path96" style="fill:#1072ba;fill-opacity:1;fill-rule:nonzero;stroke:none"
        d="m 2105.59,466.801 c -6.18,0 -10.63,-1.18 -13.44,-3.442 -2.74,-2.187 -4.06,-5.238 -4.06,-9.058 0,-1.25 0.15,-2.621 0.46,-4.071 0.4,-1.48 1.14,-2.808 2.19,-4.058 1.14,-1.172 2.66,-2.301 4.53,-3.442 1.88,-1.05 4.38,-1.871 7.5,-2.5 l 13.75,-3.121 c 5.39,-1.168 9.73,-2.769 12.97,-4.839 3.32,-2 5.86,-4.149 7.66,-6.411 1.76,-2.308 2.97,-4.648 3.59,-7.031 0.63,-2.418 0.94,-4.648 0.94,-6.719 0,-3.988 -0.86,-7.73 -2.5,-11.25 -1.56,-3.437 -3.91,-6.48 -7.03,-9.058 -3.05,-2.5 -6.72,-4.5 -11.1,-5.942 -4.37,-1.558 -9.29,-2.339 -14.68,-2.339 -6.8,0 -13.09,1.011 -18.91,2.96 -5.74,2.071 -10.39,4.301 -13.91,6.719 l 3.44,12.5 c 4.69,-4.179 9.85,-7.258 15.47,-9.219 5.7,-1.992 10.82,-2.96 15.31,-2.96 6.45,0 11.33,1.558 14.69,4.679 3.32,3.211 5,6.571 5,10 0,1.25 -0.08,2.582 -0.16,4.071 -0.11,1.441 -0.62,2.96 -1.56,4.531 -0.94,1.558 -2.3,3 -4.06,4.371 -1.8,1.328 -4.34,2.379 -7.66,3.129 l -18.59,4.679 c -4.3,1.02 -7.77,2.391 -10.47,4.071 -2.73,1.64 -4.84,3.469 -6.41,5.469 -1.56,1.949 -2.65,4.101 -3.28,6.402 -0.62,2.269 -0.93,4.566 -0.93,6.879 0,7.808 2.89,14.058 8.75,18.75 5.93,4.758 13.79,7.179 23.59,7.179 5,0 10.35,-0.699 16.09,-2.031 5.82,-1.359 10.78,-3.359 14.85,-5.929 l -3.75,-11.571 c -2.62,2.192 -6.49,4.141 -11.57,5.942 -5,1.757 -10.58,2.66 -16.71,2.66 z" />
      <path id="path98" style="fill:#1072ba;fill-opacity:1;fill-rule:nonzero;stroke:none"
        d="m 2178.44,385.859 h -13.6016 v 88.9102 h 13.6016 z m -16.41,121.411 c 0,2.57 0.94,4.878 2.81,6.871 1.88,2.07 4.14,3.129 6.88,3.129 2.58,0 4.88,-1.059 6.87,-3.129 2.07,-1.993 3.13,-4.301 3.13,-6.871 0,-2.739 -1.06,-5 -3.13,-6.879 -1.99,-1.871 -4.29,-2.813 -6.87,-2.813 -2.74,0 -5,0.942 -6.88,2.813 -1.87,1.879 -2.81,4.14 -2.81,6.879 z" />
      <path id="path100" style="fill:#1072ba;fill-opacity:1;fill-rule:nonzero;stroke:none"
        d="m 2247.7,477.73 c 7.89,0 14.68,-1.359 20.31,-4.058 5.7,-2.621 10.39,-6.172 14.06,-10.621 3.63,-4.379 6.33,-9.5 8.13,-15.321 1.75,-5.742 2.65,-11.71 2.65,-17.96 0,-6.372 -0.9,-12.348 -2.65,-17.969 -1.8,-5.551 -4.5,-10.43 -8.13,-14.692 -3.55,-4.179 -8.12,-7.5 -13.75,-10 -5.62,-2.379 -12.27,-3.589 -19.84,-3.589 -7.82,0 -14.61,1.32 -20.32,3.902 -5.74,2.578 -10.46,6.019 -14.21,10.308 -3.75,4.379 -6.57,9.379 -8.44,15 -1.8,5.629 -2.66,11.61 -2.66,17.969 0,6.332 0.86,12.352 2.66,17.973 1.87,5.629 4.61,10.547 8.28,14.848 3.75,4.371 8.44,7.808 14.06,10.308 5.63,2.582 12.23,3.902 19.85,3.902 z m 0.62,-83.902 c 5.2,0 9.69,0.942 13.44,2.813 3.83,1.949 7.03,4.57 9.53,7.808 2.5,3.321 4.3,7.11 5.47,11.41 1.13,4.371 1.72,8.942 1.72,13.75 0,4.879 -0.63,9.571 -1.88,14.063 -1.17,4.449 -3.05,8.437 -5.62,11.879 -2.62,3.429 -5.9,6.129 -9.85,8.121 -3.86,2.066 -8.51,3.129 -13.9,3.129 -5.32,0 -9.85,-1.02 -13.6,-2.973 -3.75,-1.879 -6.87,-4.449 -9.37,-7.656 -2.42,-3.242 -4.18,-7.031 -5.31,-11.402 -1.18,-4.301 -1.72,-8.75 -1.72,-13.442 0,-4.918 0.54,-9.648 1.72,-14.219 1.25,-4.488 3.12,-8.519 5.62,-12.031 2.58,-3.437 5.82,-6.207 9.69,-8.277 3.94,-2 8.63,-2.973 14.06,-2.973 z" />
      <path id="path102" style="fill:#1072ba;fill-opacity:1;fill-rule:nonzero;stroke:none"
        d="m 2379.53,385.859 v 58.75 c 0,7.692 -1.8,13.2 -5.31,16.563 -3.44,3.437 -7.89,5.156 -13.28,5.156 -3.24,0 -6.41,-0.547 -9.53,-1.558 -3.13,-1.059 -6.06,-2.622 -8.75,-4.692 -2.74,-1.988 -5.12,-4.457 -7.19,-7.348 -2.11,-2.808 -3.71,-6.089 -4.85,-9.839 v -57.032 h -13.59 v 88.911 h 10.78 l 1.41,-16.571 h 0.78 c 1.64,5.391 5.39,10 11.25,13.75 5.82,3.832 13.05,5.781 21.72,5.781 4.06,0 7.89,-0.582 11.56,-1.71 3.75,-1.059 6.95,-2.821 9.69,-5.321 2.69,-2.418 4.84,-5.621 6.4,-9.679 1.65,-3.989 2.5,-8.872 2.5,-14.692 v -60.469 z" />
      <path id="path104" style="fill:#1072ba;fill-opacity:1;fill-rule:nonzero;stroke:none"
        d="m 2448.48,466.801 c -6.18,0 -10.63,-1.18 -13.44,-3.442 -2.74,-2.187 -4.06,-5.238 -4.06,-9.058 0,-1.25 0.15,-2.621 0.47,-4.071 0.39,-1.48 1.13,-2.808 2.18,-4.058 1.14,-1.172 2.66,-2.301 4.53,-3.442 1.88,-1.05 4.38,-1.871 7.5,-2.5 l 13.75,-3.121 c 5.39,-1.168 9.73,-2.769 12.97,-4.839 3.32,-2 5.86,-4.149 7.66,-6.411 1.76,-2.308 2.97,-4.648 3.59,-7.031 0.63,-2.418 0.94,-4.648 0.94,-6.719 0,-3.988 -0.86,-7.73 -2.5,-11.25 -1.56,-3.437 -3.91,-6.48 -7.03,-9.058 -3.05,-2.5 -6.72,-4.5 -11.09,-5.942 -4.38,-1.558 -9.3,-2.339 -14.69,-2.339 -6.8,0 -13.09,1.011 -18.91,2.96 -5.74,2.071 -10.39,4.301 -13.9,6.719 l 3.43,12.5 c 4.69,-4.179 9.85,-7.258 15.47,-9.219 5.7,-1.992 10.82,-2.96 15.31,-2.96 6.45,0 11.33,1.558 14.69,4.679 3.32,3.211 5,6.571 5,10 0,1.25 -0.08,2.582 -0.15,4.071 -0.12,1.441 -0.63,2.96 -1.57,4.531 -0.93,1.558 -2.3,3 -4.06,4.371 -1.8,1.328 -4.34,2.379 -7.66,3.129 l -18.59,4.679 c -4.3,1.02 -7.77,2.391 -10.47,4.071 -2.73,1.64 -4.84,3.469 -6.4,5.469 -1.57,1.949 -2.66,4.101 -3.29,6.402 -0.62,2.269 -0.93,4.566 -0.93,6.879 0,7.808 2.89,14.058 8.75,18.75 5.93,4.758 13.79,7.179 23.59,7.179 5,0 10.35,-0.699 16.09,-2.031 5.82,-1.359 10.79,-3.359 14.85,-5.929 l -3.75,-11.571 c -2.62,2.192 -6.49,4.141 -11.56,5.942 -5,1.757 -10.59,2.66 -16.72,2.66 z" />
      <path id="path106" style="fill:#1072ba;fill-opacity:1;fill-rule:nonzero;stroke:none"
        d="m 2505.86,370.859 7.5,14.063 h -4.84 v 17.348 h 15.31 v -20.321 l -14.06,-14.84 z" />
      <path id="path108" style="fill:#1072ba;fill-opacity:1;fill-rule:nonzero;stroke:none"
        d="m 2605.82,513.359 c 4.57,0.313 9.38,0.551 14.38,0.782 5.07,0.199 9.92,0.308 14.53,0.308 6.95,0 13.28,-0.859 18.9,-2.5 5.63,-1.558 10.47,-3.898 14.53,-7.027 4.07,-3.121 7.23,-6.992 9.54,-11.563 2.26,-4.609 3.43,-9.808 3.43,-15.629 0,-8.351 -2.34,-15.742 -7.03,-22.179 -4.61,-6.371 -11.72,-10.86 -21.4,-13.442 l 48.9,-56.25 h -17.97 l -47.81,54.532 c -5.62,0 -10.78,0.199 -15.47,0.629 v -55.161 h -14.53 z m 30,-11.718 c -2.73,0 -5.39,-0.082 -7.97,-0.161 -2.62,0 -5.12,-0.109 -7.5,-0.308 V 453.52 c 2.38,-0.321 4.88,-0.469 7.5,-0.469 2.58,0 5.39,0 8.44,0 9.45,0 16.6,2.219 21.41,6.719 4.88,4.449 7.34,10.929 7.34,19.371 0,6.757 -2.19,12.187 -6.56,16.25 -4.3,4.14 -11.84,6.25 -22.66,6.25 z" />
      <path id="path110" style="fill:#1072ba;fill-opacity:1;fill-rule:nonzero;stroke:none"
        d="m 2753.75,477.73 c 11.33,0 20.08,-2.929 26.25,-8.75 6.25,-5.742 9.38,-13.82 9.38,-24.21 0,-2.192 -0.16,-4.461 -0.47,-6.719 -0.24,-2.192 -0.63,-3.832 -1.25,-4.852 h -65.16 v -1.871 c 0,-4.918 0.62,-9.648 1.88,-14.219 1.32,-4.488 3.28,-8.519 5.78,-12.031 2.57,-3.437 5.86,-6.207 9.84,-8.277 3.95,-2 8.63,-2.973 14.06,-2.973 3.01,0 5.98,0.313 8.91,0.942 3.01,0.699 5.86,1.601 8.59,2.652 2.7,1.129 5.2,2.348 7.5,3.598 2.39,1.32 4.46,2.652 6.25,3.902 l 2.35,-10.942 c -1.68,-1.05 -3.75,-2.179 -6.25,-3.429 -2.43,-1.172 -5.12,-2.27 -8.13,-3.281 -2.93,-1.059 -6.17,-1.918 -9.69,-2.661 -3.55,-0.699 -7.26,-1.089 -11.09,-1.089 -7.3,0 -13.71,1.25 -19.22,3.75 -5.55,2.5 -10.16,5.851 -13.9,10.152 -3.76,4.379 -6.65,9.379 -8.6,15 -1.87,5.699 -2.81,11.719 -2.81,17.969 0,6.25 0.98,12.23 2.97,17.968 1.95,5.7 4.88,10.782 8.75,15.161 3.94,4.371 8.79,7.808 14.53,10.308 5.7,2.582 12.23,3.902 19.53,3.902 z m -0.47,-10.929 c -8.55,0 -15.16,-2.27 -19.84,-6.723 -4.69,-4.379 -7.89,-9.918 -9.53,-16.558 h 52.65 c 0.2,0.621 0.32,1.171 0.32,1.71 0,0.508 0,1.098 0,1.719 0,3.211 -0.71,6.102 -2.04,8.602 -1.25,2.5 -2.96,4.57 -5.15,6.25 -2.19,1.64 -4.77,2.89 -7.66,3.75 -2.81,0.82 -5.74,1.25 -8.75,1.25 z" />
      <path id="path112" style="fill:#1072ba;fill-opacity:1;fill-rule:nonzero;stroke:none"
        d="m 2870.55,385.859 -1.57,15.782 h -0.78 c -1.56,-2.422 -3.67,-4.692 -6.25,-6.871 -2.5,-2.192 -5.39,-4.149 -8.59,-5.79 -3.13,-1.679 -6.56,-2.96 -10.31,-3.902 -3.67,-1.019 -7.27,-1.558 -10.78,-1.558 -8.56,0 -14.97,2.421 -19.22,7.339 -4.3,5 -6.41,11.25 -6.41,18.75 0,7.379 1.88,13.282 5.63,17.661 3.75,4.371 8.32,7.652 13.75,9.839 5.39,2.192 11.09,3.59 17.03,4.219 6.01,0.621 11.29,0.942 15.78,0.942 h 8.75 v 2.339 c 0,4.879 -0.7,8.629 -2.03,11.25 -1.37,2.582 -3.36,4.762 -5.94,6.563 -2.19,1.328 -4.53,2.348 -7.03,2.969 -2.5,0.629 -5.78,0.937 -9.85,0.937 -5.43,0 -10.23,-0.738 -14.37,-2.187 -4.18,-1.481 -8.2,-3.36 -12.03,-5.621 l -2.97,11.558 c 8.52,5.082 18.79,7.652 30.78,7.652 4.77,0 9.3,-0.46 13.59,-1.402 4.26,-0.859 8.01,-2.269 11.25,-4.219 3.75,-2.418 6.72,-5.738 8.91,-10 2.19,-4.179 3.28,-9.449 3.28,-15.781 v -60.469 z m -34.22,9.063 c 5.19,0 10.78,1.637 16.72,5 5.93,3.316 10.78,8.168 14.53,14.527 v 17.973 h -1.72 c -5.31,0 -10.63,-0.231 -15.94,-0.621 -5.23,-0.321 -10,-1.25 -14.37,-2.821 -4.3,-1.558 -7.78,-3.82 -10.47,-6.71 -2.74,-2.93 -4.06,-6.879 -4.06,-11.879 0,-5 1.32,-8.871 4.06,-11.563 2.81,-2.617 6.56,-3.906 11.25,-3.906 z" />
      <path id="path114" style="fill:#1072ba;fill-opacity:1;fill-rule:nonzero;stroke:none"
        d="m 2911.52,385.859 h 13.4414 V 528.828 H 2911.52 Z" />
      <path id="path116" style="fill:#1072ba;fill-opacity:1;fill-rule:nonzero;stroke:none"
        d="m 2969.92,385.859 h -13.5898 v 88.9102 h 13.5898 z m -16.4,121.411 c 0,2.57 0.93,4.878 2.81,6.871 1.87,2.07 4.14,3.129 6.87,3.129 2.58,0 4.89,-1.059 6.88,-3.129 2.07,-1.993 3.12,-4.301 3.12,-6.871 0,-2.739 -1.05,-5 -3.12,-6.879 -1.99,-1.871 -4.3,-2.813 -6.88,-2.813 -2.73,0 -5,0.942 -6.87,2.813 -1.88,1.879 -2.81,4.14 -2.81,6.879 z" />
      <path id="path118" style="fill:#1072ba;fill-opacity:1;fill-rule:nonzero;stroke:none"
        d="m 3004.22,465.699 h -14.84 v 7.192 l 15.31,1.879 2.81,26.871 h 10.31 V 474.77 h 20.94 v -9.071 h -20.94 V 403.98 c 0,-4.058 0.63,-6.789 1.88,-8.121 1.25,-1.25 3.12,-1.879 5.62,-1.879 3.01,0 5.67,0.399 7.97,1.25 2.27,0.942 4.38,2.071 6.25,3.442 l 2.66,-10.313 c -2.19,-1.058 -5.08,-2.109 -8.6,-3.129 -3.55,-1.011 -7.46,-1.558 -11.71,-1.558 -4.18,0 -7.43,0.629 -9.69,1.879 -2.31,1.129 -4.03,2.648 -5.16,4.527 -1.17,1.953 -1.95,4.141 -2.34,6.563 -0.31,2.379 -0.47,4.73 -0.47,7.031 z" />
      <path id="path120" style="fill:#1072ba;fill-opacity:1;fill-rule:nonzero;stroke:none"
        d="m 3102.77,385.078 c -1.87,-4.137 -4.18,-8.988 -6.87,-14.527 -2.74,-5.629 -5.94,-10.942 -9.69,-15.942 -3.75,-5.078 -8.2,-9.41 -13.28,-12.968 -5,-3.52 -10.63,-5.313 -16.88,-5.313 -1.05,0 -1.83,0.082 -2.34,0.152 -0.55,0.122 -1.09,0.282 -1.72,0.469 l -2.5,12.821 c 0.31,-0.2 0.71,-0.36 1.25,-0.469 0.51,-0.082 1.45,-0.16 2.81,-0.16 2.5,0 4.89,0.269 7.19,0.781 2.27,0.547 4.53,1.558 6.72,3.129 4.45,3.238 8.52,7.929 12.19,14.058 3.75,6.172 7.07,13.403 10,21.719 l -44.38,85.942 h 15.94 l 35.47,-74.071 31.56,74.071 h 15.31 z" />
    </g>
  </g>
</svg>