<?xml version="1.0" encoding="UTF-8" standalone="no"?>
<svg xmlns:dc="http://purl.org/dc/elements/1.1/" xmlns:cc="http://creativecommons.org/ns#"
  xmlns:rdf="http://www.w3.org/1999/02/22-rdf-syntax-ns#" xmlns:svg="http://www.w3.org/2000/svg"
  xmlns="http://www.w3.org/2000/svg" viewBox="0 0 131 165.33333" height="165.33333" width="131"
  xml:space="preserve" id="svg2" version="1.1">
  <metadata id="metadata8">
    <rdf:RDF>
      <cc:Work rdf:about="">
        <dc:format>image/svg+xml</dc:format>
        <dc:type rdf:resource="http://purl.org/dc/dcmitype/StillImage" />
      </cc:Work>
    </rdf:RDF>
  </metadata>
  <defs id="defs6" />
  <g transform="matrix(1.3333333,0,0,-1.3333333,0,165.33333)" id="g10">
    <g transform="scale(0.1)" id="g12">
      <path id="path14" style="fill:#0f70b8;fill-opacity:1;fill-rule:evenodd;stroke:none"
        d="M 437.461,2.19141 441.84,1227.5 402.379,2.19141 h 35.082" />
      <path id="path16" style="fill:#0f70b8;fill-opacity:1;fill-rule:evenodd;stroke:none"
        d="M 364.961,2.19141 382.27,1168.71 329.879,2.19141 h 35.082" />
      <path id="path18" style="fill:#0f70b8;fill-opacity:1;fill-rule:evenodd;stroke:none"
        d="M 290,2.19141 328.711,1116.72 254.961,2.19141 H 290" />
      <path id="path20" style="fill:#0f70b8;fill-opacity:1;fill-rule:evenodd;stroke:none"
        d="M 226.762,2.19141 269.879,1057.11 191.762,2.19141 h 35" />
      <path id="path22" style="fill:#0f70b8;fill-opacity:1;fill-rule:evenodd;stroke:none"
        d="M 161.52,2.19141 216.289,1001.13 126.48,2.19141 h 35.04" />
      <path id="path24" style="fill:#0f70b8;fill-opacity:1;fill-rule:evenodd;stroke:none"
        d="M 95.4297,2.19141 154.262,936.25 60.4297,2.19141 h 35" />
      <path id="path26" style="fill:#0f70b8;fill-opacity:1;fill-rule:evenodd;stroke:none"
        d="M 35.0391,2.19141 90.2305,854.922 0,2.19141 h 35.0391" />
      <path id="path28" style="fill:#303535;fill-opacity:1;fill-rule:evenodd;stroke:none"
        d="M 487.379,2.58203 485.391,1240 882.148,855.309 977.191,2.58203 H 487.379" />
    </g>
  </g>
</svg>